<?xml version="1.0" encoding="UTF-8"?>
<svg version="1.1" xmlns="http://www.w3.org/2000/svg" width="512" height="512">
<g transform="translate(256, 256) scale(3) translate(-239.5, -240.5)">
<path d="M0 0 C12.87 0 25.74 0 39 0 C37.57306996 4.28079011 36.39461681 7.37462777 34.234375 11.17578125 C33.68120605 12.15579102 33.12803711 13.13580078 32.55810547 14.14550781 C31.96143066 15.19061523 31.36475586 16.23572266 30.75 17.3125 C29.47638835 19.56370357 28.20295589 21.81500852 26.9296875 24.06640625 C26.27056117 25.22805762 25.61138139 26.38967867 24.95214844 27.55126953 C22.49169364 31.89799095 20.05613405 36.25833593 17.62207031 40.61987305 C12.31987332 50.11951916 6.9666163 59.58784345 1.55175781 69.02368164 C-3.0644021 77.08043376 -7.59433628 85.18481606 -12.10546875 93.30078125 C-21.93615183 110.93615183 -21.93615183 110.93615183 -24 113 C-26.8116338 113.08861992 -29.59858255 113.11522355 -32.41015625 113.09765625 C-33.25219101 113.0962413 -34.09422577 113.09482635 -34.96177673 113.09336853 C-37.66205335 113.08775263 -40.36224828 113.07519748 -43.0625 113.0625 C-44.88867068 113.05748705 -46.71484266 113.05292379 -48.54101562 113.04882812 C-53.02737542 113.03777804 -57.51367384 113.02050279 -62 113 C-60.56320894 109.17992903 -58.81177209 105.68439504 -56.83203125 102.1171875 C-56.19386475 100.96395996 -55.55569824 99.81073242 -54.89819336 98.62255859 C-54.20302778 97.37333592 -53.50779487 96.12415071 -52.8125 94.875 C-52.09032715 93.57256643 -51.36840721 92.2699926 -50.64672852 90.96728516 C-48.79203317 87.62106236 -46.93384954 84.27679115 -45.07458496 80.93310547 C-43.42563602 77.96675816 -41.77935031 74.99893635 -40.1328125 72.03125 C-37.04601511 66.46965765 -33.95511587 60.91035569 -30.86328125 55.3515625 C-28.98021129 51.96440522 -27.09916827 48.57613003 -25.21875 45.1875 C-16.8480056 30.10485431 -8.43625663 15.04610718 0 0 Z " fill="#171818" transform="translate(265,184)"/>
<path d="M0 0 C4.30469108 -0.22352603 8.60626533 -0.38623281 12.91503906 -0.49438477 C14.37820277 -0.53948228 15.84096439 -0.60078644 17.30273438 -0.67895508 C29.44498771 -1.31170874 29.44498771 -1.31170874 33.24536133 1.89404297 C34.80174895 4.21277694 35.92086581 6.42945723 37 9 C37.79791415 10.42493288 38.60802082 11.84320755 39.4375 13.25 C41.24424375 16.56590617 40.95179048 18.37602382 40 22 C39.08306305 23.94401595 38.09559489 25.85557044 37.05859375 27.73828125 C36.47529297 28.80498047 35.89199219 29.87167969 35.29101562 30.97070312 C34.67935547 32.07349609 34.06769531 33.17628906 33.4375 34.3125 C32.82197266 35.43462891 32.20644531 36.55675781 31.57226562 37.71289062 C30.05407906 40.47857933 28.52982295 43.24073609 27 46 C23.17413969 44.53463494 21.97865794 42.74064588 20.1171875 39.15234375 C19.59406982 38.16194092 19.07095215 37.17153809 18.53198242 36.15112305 C17.98517822 35.09062744 17.43837402 34.03013184 16.875 32.9375 C15.72537105 30.75377696 14.57300386 28.57149339 13.41796875 26.390625 C12.56017822 24.76930664 12.56017822 24.76930664 11.68505859 23.11523438 C8.92235547 18.00771599 5.94179859 13.03450442 2.89599609 8.09155273 C0 3.3120066 0 3.3120066 0 0 Z " fill="#171819" transform="translate(175,237)"/>
<path d="M0 0 C10.23 0 20.46 0 31 0 C31 0.33 31 0.66 31 1 C30.16227051 1.01458252 29.32454102 1.02916504 28.46142578 1.04418945 C25.35621098 1.10520707 22.25166883 1.17935065 19.14697266 1.26245117 C17.14117664 1.31209959 15.13502313 1.34654164 13.12890625 1.38085938 C11.87207031 1.41630859 10.61523438 1.45175781 9.3203125 1.48828125 C8.15773926 1.51446533 6.99516602 1.54064941 5.79736328 1.56762695 C4.8742334 1.71031006 3.95110352 1.85299316 3 2 C2.01 3.485 2.01 3.485 1 5 C0.67 3.35 0.34 1.7 0 0 Z " fill="#2D2D2E" transform="translate(175,237)"/>
<path d="M0 0 C1 4 1 4 -0.9375 7.25 C-1.618125 8.1575 -2.29875 9.065 -3 10 C-3.66 9.67 -4.32 9.34 -5 9 C-3.35 6.03 -1.7 3.06 0 0 Z " fill="#232324" transform="translate(235,238)"/>
</g>
</svg>
